<svg xmlns="http://www.w3.org/2000/svg" viewBox="0 0 335.04 396.77"><defs><style>.cls-1{fill:#3dc0c4;}.cls-2{fill:#8f8279;}.cls-3{fill:#564a41;}.cls-4{fill:#6e5c51;}.cls-5{fill:#019247;}.cls-6{fill:#8cc640;}.cls-7{fill:none;}</style></defs><title>Asset 1</title><g id="Layer_2" data-name="Layer 2"><g id="Layer_1-2" data-name="Layer 1"><path class="cls-1" d="M298.76,341.52H167.52a4.5,4.5,0,1,1,0-9H298.76a8.79,8.79,0,0,0,8.77-8.77V181.28a4.5,4.5,0,1,1,9,0V323.75A17.79,17.79,0,0,1,298.76,341.52Z"/><path class="cls-1" d="M167.52,341.52H36.29a17.8,17.8,0,0,1-17.78-17.77V181.28a4.5,4.5,0,0,1,9,0V323.75a8.79,8.79,0,0,0,8.78,8.77H167.52a4.5,4.5,0,0,1,0,9Z"/><path class="cls-1" d="M330.54,187.05a4.51,4.51,0,0,1-3.18-1.31L193.26,51.63A33.15,33.15,0,0,0,167.81,42a4.5,4.5,0,1,1-.56-9,42.08,42.08,0,0,1,32.37,12.24l134.1,134.1a4.5,4.5,0,0,1-3.18,7.68Z"/><path class="cls-1" d="M4.5,185.78A4.5,4.5,0,0,1,1.39,178L140.8,44.62A42.09,42.09,0,0,1,167.25,33a4.5,4.5,0,1,1,.56,9A33.12,33.12,0,0,0,147,51.12L7.61,184.53A4.5,4.5,0,0,1,4.5,185.78Z"/><path class="cls-2" d="M41.65,305H54.42a9.45,9.45,0,0,0,9.44-9.45h0a9.45,9.45,0,0,1,9.45-9.45h94.21v37.79H41.65a9.45,9.45,0,0,1-9.45-9.45h0A9.45,9.45,0,0,1,41.65,305Z"/><path class="cls-3" d="M293.39,305H280.63a9.45,9.45,0,0,1-9.45-9.45h0a9.45,9.45,0,0,0-9.45-9.45H167.52v37.79H293.39a9.45,9.45,0,0,0,9.45-9.45h0A9.45,9.45,0,0,0,293.39,305Z"/><path class="cls-4" d="M227.78,306.11c-5.11-24.46-23.49-19.67-23.49-19.67l-35.24-.35v0l-1.53,0-1.53,0v0l-35.23.35s-18.39-4.79-23.49,19.67c-25.54-4.32-28.6,17.74-28.6,17.74h177.7S253.31,301.79,227.78,306.11Z"/><path class="cls-5" d="M167.52,286.06s-46.52-5.14-38.8-36.43"/><path class="cls-5" d="M128.72,249.63a53.58,53.58,0,0,1,38.8,36.43"/><path class="cls-6" d="M167.52,286.06s0-52.28-38.8-36.43a155.8,155.8,0,0,1,17.13,13.05A155,155,0,0,1,167.52,286.06Z"/><path class="cls-5" d="M167.52,286.06s46.52-5.14,38.8-36.43"/><path class="cls-5" d="M206.32,249.63a53.58,53.58,0,0,0-38.8,36.43"/><path class="cls-6" d="M167.52,286.06s0-52.28,38.8-36.43a155.2,155.2,0,0,0-38.8,36.43Z"/><line class="cls-7" x1="167.52" y1="337.02" x2="167.52" y2="396.77"/><line class="cls-7" x1="167.52" y1="37.45" x2="167.52" y2="337.02"/><line class="cls-7" x1="167.52" x2="167.52" y2="37.45"/></g></g></svg>